#!OML:ASF C:\Vicon Data\Big\jianyuan-13\jianyuan\Session 1\Capture.male.ASF
:FULLY-SPECIFIED
:DEGREES
112
root -8.963694 17.441997 -17.399178 10.550570 -9.633986 -0.146634
lowerback -10.554938 2.370804 -2.362749 
upperback 2.743125 3.553520 -0.620779 
thorax 8.749861 1.614369 1.302394 
lowerneck -5.180411 -2.313997 2.018041 
upperneck 22.839990 -3.110064 -1.582280 
head 7.818605 -1.442610 -1.114843 
rclavicle 0.000000 0.000000 
rhumerus -25.332322 0.051821 -92.893708 
rradius 46.534440 
rwrist 20.262694 
rhand -16.243249 -16.544586 
rfingers 0.000000 
rthumb 9.965525 -46.288690 
lclavicle 0.000000 0.000000 
lhumerus -72.732132 43.528386 24.872381 
lradius 21.039158 
lwrist -79.078377 
lhand -21.824072 1.733763 
lfingers 0.000000 
lthumb 4.578644 31.664310 
rfemur -5.584292 2.601059 28.503678 
rtibia 22.601997 
rfoot -24.767212 -7.119455 
rtoes -23.493540 
lfemur -28.039390 -6.195563 -18.583800 
ltibia 0.000000 
lfoot -5.204538 8.282162 
ltoes -42.957377 
113
root -8.976087 17.430233 -17.304777 10.455895 -9.738315 -0.078935
lowerback -10.572266 2.459459 -2.502152 
upperback 2.788735 3.697030 -0.664834 
thorax 8.799161 1.676396 1.360806 
lowerneck -5.344408 -2.380549 2.193018 
upperneck 22.887448 -3.217757 -1.636013 
head 7.858013 -1.483407 -1.173903 
rclavicle 0.000000 0.000000 
rhumerus -25.215344 -0.012479 -92.929003 
rradius 46.633375 
rwrist 20.244206 
rhand -16.325511 -16.655410 
rfingers 0.000000 
rthumb 9.886117 -46.403216 
lclavicle 0.000000 0.000000 
lhumerus -73.128610 43.437208 24.274618 
lradius 21.073849 
lwrist -79.352764 
lhand -21.786113 1.808772 
lfingers 0.000000 
lthumb 4.615301 31.738521 
rfemur -5.225547 2.403684 28.435782 
rtibia 22.635430 
rfoot -24.556214 -7.276727 
rtoes -25.086930 
lfemur -27.631760 -6.075807 -18.820650 
ltibia 0.000000 
lfoot -4.907573 8.562480 
ltoes -41.769072 
114
root -8.986658 17.415510 -17.209029 10.402401 -9.762406 -0.107601
lowerback -10.594117 2.508849 -2.489916 
upperback 2.776812 3.762033 -0.667871 
thorax 8.797576 1.708714 1.362933 
lowerneck -5.325981 -2.410329 2.128911 
upperneck 22.875400 -3.279365 -1.497796 
head 7.853531 -1.505292 -1.122014 
rclavicle 0.000000 0.000000 
rhumerus -25.301100 0.075781 -92.947008 
rradius 46.800884 
rwrist 20.024811 
rhand -16.346783 -16.752929 
rfingers 0.000000 
rthumb 9.865593 -46.501794 
lclavicle 0.000000 0.000000 
lhumerus -73.741103 43.308041 23.435830 
lradius 21.057516 
lwrist -79.797416 
lhand -21.843185 1.815573 
lfingers 0.000000 
lthumb 4.560195 31.746504 
rfemur -4.830315 2.315796 28.460211 
rtibia 22.665669 
rfoot -24.265287 -7.316904 
rtoes -26.005412 
lfemur -27.235438 -6.005106 -18.926739 
ltibia 0.000000 
lfoot -4.524016 8.633764 
ltoes -40.577463 
115
root -8.997107 17.406152 -17.110151 10.418227 -9.884803 -0.225585
lowerback -10.673809 2.587340 -2.415667 
upperback 2.746273 3.855763 -0.636985 
thorax 8.809795 1.756945 1.374064 
lowerneck -5.319469 -2.437138 2.119716 
upperneck 22.877665 -3.308780 -1.525147 
head 7.852073 -1.522355 -1.131715 
rclavicle 0.000000 0.000000 
rhumerus -25.350479 0.028597 -93.007587 
rradius 46.836957 
rwrist 20.115003 
rhand -16.419803 -16.771341 
rfingers 0.000000 
rthumb 9.795161 -46.523511 
lclavicle 0.000000 0.000000 
lhumerus -74.324879 43.209975 22.754006 
lradius 21.038392 
lwrist -80.074484 
lhand -21.946715 1.981531 
lfingers 0.000000 
lthumb 4.460185 31.914561 
rfemur -4.516384 2.216753 28.511766 
rtibia 22.791077 
rfoot -24.062269 -7.048554 
rtoes -26.111528 
lfemur -26.830058 -5.817644 -18.958373 
ltibia 0.000000 
lfoot -3.981701 8.631333 
ltoes -40.001093 
116
root -9.013946 17.397449 -17.012148 10.393446 -10.156084 -0.259051
lowerback -10.775021 2.728163 -2.467989 
upperback 2.767904 4.059774 -0.687721 
thorax 8.885403 1.852450 1.391804 
lowerneck -5.370323 -2.485344 2.214924 
upperneck 22.869527 -3.400464 -1.473665 
head 7.856298 -1.553149 -1.138846 
rclavicle 0.000000 0.000000 
rhumerus -25.281300 -0.153156 -93.061312 
rradius 46.843795 
rwrist 20.310756 
rhand -16.261258 -16.661098 
rfingers 0.000000 
rthumb 9.948144 -46.406013 
lclavicle 0.000000 0.000000 
lhumerus -74.769837 43.232738 22.009579 
lradius 21.066316 
lwrist -80.074783 
lhand -21.864843 1.889884 
lfingers 0.000000 
lthumb 4.539290 31.821229 
rfemur -4.191254 2.408756 28.500551 
rtibia 22.979650 
rfoot -23.886847 -7.015491 
rtoes -26.532525 
lfemur -26.361294 -5.486074 -19.081729 
ltibia 0.000000 
lfoot -3.421389 8.463454 
ltoes -39.246565 
117
root -9.024853 17.386722 -16.906539 10.334119 -10.260871 -0.199052
lowerback -10.905770 2.777776 -2.604935 
upperback 2.792587 4.150773 -0.687105 
thorax 8.975632 1.886490 1.493391 
lowerneck -5.395710 -2.530078 2.149768 
upperneck 22.900195 -3.465147 -1.422285 
head 7.872255 -1.584047 -1.117025 
rclavicle 0.000000 0.000000 
rhumerus -25.276981 0.135957 -92.914259 
rradius 46.861183 
rwrist 20.000888 
rhand -16.482352 -16.702376 
rfingers 0.000000 
rthumb 9.734818 -46.457421 
lclavicle 0.000000 0.000000 
lhumerus -75.054976 43.071195 21.720207 
lradius 21.110003 
lwrist -79.913061 
lhand -21.741984 1.875056 
lfingers 0.000000 
lthumb 4.657936 31.803853 
rfemur -3.800916 2.396733 28.389306 
rtibia 23.165102 
rfoot -23.855364 -6.919788 
rtoes -26.769105 
lfemur -27.034773 -5.356334 -19.256364 
ltibia 2.328388 
lfoot -3.894025 7.670656 
ltoes -37.765877 
118
root -9.036488 17.378815 -16.805456 10.335301 -10.373032 -0.279273
lowerback -10.998844 2.815528 -2.588020 
upperback 2.762736 4.198120 -0.651860 
thorax 8.993818 1.908794 1.534394 
lowerneck -5.343091 -2.525562 2.040841 
upperneck 22.895494 -3.461865 -1.333966 
head 7.865165 -1.583581 -1.068380 
rclavicle 0.000000 0.000000 
rhumerus -25.292890 0.173331 -92.879214 
rradius 46.804864 
rwrist 20.148823 
rhand -16.338407 -16.707110 
rfingers 0.000000 
rthumb 9.873663 -46.455595 
lclavicle 0.000000 0.000000 
lhumerus -75.432002 42.874144 21.420946 
lradius 21.160884 
lwrist -79.806321 
lhand -21.804427 1.936818 
lfingers 0.000000 
lthumb 4.597605 31.866953 
rfemur -3.503913 2.346427 28.403807 
rtibia 23.328104 
rfoot -23.673426 -6.728499 
rtoes -26.984873 
lfemur -27.506037 -5.188062 -19.289663 
ltibia 4.118243 
lfoot -4.169246 7.067895 
ltoes -38.089328 
119
root -9.048640 17.378392 -16.699047 10.277587 -10.635684 -0.220833
lowerback -11.104275 2.954481 -2.706093 
upperback 2.760572 4.413026 -0.747105 
thorax 9.043738 2.007738 1.544066 
lowerneck -5.357812 -2.599375 2.341731 
upperneck 22.914284 -3.586506 -1.419939 
head 7.864314 -1.625187 -1.157755 
rclavicle 0.000000 0.000000 
rhumerus -25.330112 0.026769 -92.964981 
rradius 46.742552 
rwrist 20.036931 
rhand -16.541817 -16.641910 
rfingers 0.000000 
rthumb 9.677459 -46.399547 
lclavicle 0.000000 0.000000 
lhumerus -75.577397 42.745963 21.040199 
lradius 21.140608 
lwrist -79.938807 
lhand -21.678776 1.957622 
lfingers 0.000000 
lthumb 4.718970 31.885051 
rfemur -3.129363 2.351019 28.213411 
rtibia 23.426067 
rfoot -23.338532 -6.441370 
rtoes -26.710341 
lfemur -27.675637 -4.905874 -19.514932 
ltibia 5.394218 
lfoot -4.172047 6.748304 
ltoes -37.281616 
120
root -9.061409 17.382897 -16.594644 10.235187 -10.745379 -0.243321
lowerback -11.213183 2.966305 -2.807569 
upperback 2.756511 4.441926 -0.683555 
thorax 9.088737 2.012754 1.679943 
lowerneck -5.258350 -2.611349 2.226008 
upperneck 22.919460 -3.581097 -1.436367 
head 7.849856 -1.633782 -1.141542 
rclavicle 0.000000 0.000000 
rhumerus -25.378957 0.105325 -92.878154 
rradius 46.653416 
rwrist 20.110412 
rhand -16.546741 -16.578372 
rfingers 0.000000 
rthumb 9.672695 -46.336253 
lclavicle 0.000000 0.000000 
lhumerus -76.073293 42.718622 20.645303 
lradius 21.221267 
lwrist -79.454911 
lhand -21.622828 1.968616 
lfingers 0.000000 
lthumb 4.772957 31.894840 
rfemur -2.684865 2.378094 28.157938 
rtibia 23.419115 
rfoot -23.032431 -6.268845 
rtoes -26.804726 
lfemur -27.848513 -4.745399 -19.609288 
ltibia 6.428522 
lfoot -3.920039 6.816134 
ltoes -37.756536 
121
root -9.074229 17.391434 -16.485750 10.207908 -10.878171 -0.141671
lowerback -11.358797 3.004115 -2.978356 
upperback 2.721283 4.525464 -0.722066 
thorax 9.121936 2.043899 1.757249 
lowerneck -5.208725 -2.645044 2.238125 
upperneck 22.998279 -3.628928 -1.433723 
head 7.866137 -1.654346 -1.146798 
rclavicle 0.000000 0.000000 
rhumerus -25.440046 0.179804 -92.842415 
rradius 46.539551 
rwrist 20.276447 
rhand -16.434135 -16.713110 
rfingers 0.000000 
rthumb 9.781314 -46.465987 
lclavicle 0.000000 0.000000 
lhumerus -76.220227 42.492879 20.555610 
lradius 21.246650 
lwrist -79.187274 
lhand -21.701654 1.991326 
lfingers 0.000000 
lthumb 4.696813 31.919243 
rfemur -2.253449 2.536317 27.968751 
rtibia 23.413000 
rfoot -22.668418 -6.216464 
rtoes -26.509145 
lfemur -27.976033 -4.585094 -19.829774 
ltibia 7.255306 
lfoot -3.767922 6.907940 
ltoes -37.692346 
